<svg width="111" height="119" viewBox="0 0 111 119" fill="none" xmlns="http://www.w3.org/2000/svg">
<path d="M63.089 115.376H7.98784C5.78302 115.376 4 113.465 4 111.101V6.27524C4 3.91153 5.78302 2 7.98784 2H63.089C65.2746 2 67.0768 3.91153 67.0768 6.27524V111.101C67.0768 113.465 65.2746 115.376 63.089 115.376Z" fill="#263238"/>
<path d="M64.9495 6.06958V111.101C64.9495 112.026 64.2401 112.745 63.3773 112.745H7.52849C6.74242 112.745 6.12891 112.087 6.12891 111.224V5.92571C6.12891 5.18576 6.64656 4.54858 7.33676 4.54858H21.2942C21.6776 4.54858 22.0419 4.81579 22.1953 5.20632L22.7705 6.74787C22.9238 7.1384 23.2689 7.4056 23.6715 7.4056H47.4452C47.8286 7.4056 48.1929 7.1384 48.3271 6.74787L48.9214 5.22687C49.0556 4.81578 49.4199 4.54858 49.8034 4.54858H63.5691C64.336 4.54858 64.9495 5.24742 64.9495 6.06958Z" fill="#407BFF"/>
<path opacity="0.3" d="M64.9495 6.06958V111.101C64.9495 112.026 64.2401 112.745 63.3773 112.745H7.52849C6.74242 112.745 6.12891 112.087 6.12891 111.224V5.92571C6.12891 5.18576 6.64656 4.54858 7.33676 4.54858H21.2942C21.6776 4.54858 22.0419 4.81579 22.1953 5.20632L22.7705 6.74787C22.9238 7.1384 23.2689 7.4056 23.6715 7.4056H47.4452C47.8286 7.4056 48.1929 7.1384 48.3271 6.74787L48.9214 5.22687C49.0556 4.81578 49.4199 4.54858 49.8034 4.54858H63.5691C64.336 4.54858 64.9495 5.24742 64.9495 6.06958Z" fill="black"/>
<path opacity="0.6" d="M64.9495 11.6194V105.017H6.12891V11.6194H64.9495Z" fill="white"/>
<path opacity="0.6" d="M12.6094 8.06396H13.3379V9.11222H12.6094V8.06396Z" fill="white"/>
<path opacity="0.6" d="M11.4209 7.71387H12.1494V9.11155H11.4209V7.71387Z" fill="white"/>
<path opacity="0.6" d="M10.2529 7.3855H10.9815V9.11204H10.2529V7.3855Z" fill="white"/>
<path opacity="0.6" d="M9.0625 7.03589H9.79104V9.11185H9.0625V7.03589Z" fill="white"/>
<path opacity="0.6" d="M58.2753 8.72204H57.8535V7.69434H58.2753V8.72204Z" fill="white"/>
<path opacity="0.6" d="M58.5811 7.30371H62.0129V9.11247H58.5811V7.30371Z" fill="white"/>
<path opacity="0.6" d="M35.5206 4.69237C35.5206 5.16512 35.1755 5.55564 34.7154 5.55564C34.2744 5.55564 33.9102 5.16512 33.9102 4.69237C33.9102 4.21963 34.2744 3.8291 34.7154 3.8291C35.1755 3.8291 35.5206 4.21963 35.5206 4.69237Z" fill="white"/>
<path opacity="0.6" d="M37.1701 4.69266C37.1701 5.00097 36.94 5.24761 36.6524 5.24761C36.3648 5.24761 36.1348 5.00097 36.1348 4.69266C36.1348 4.38435 36.3648 4.1377 36.6524 4.1377C36.94 4.1377 37.1701 4.38435 37.1701 4.69266Z" fill="white"/>
<path d="M64.9495 22.4103H6.12891V11.6194H64.9495V22.4103Z" fill="#407BFF"/>
<path fill-rule="evenodd" clip-rule="evenodd" d="M61.7659 17.8878C61.7148 18.1071 61.6381 18.3057 61.5359 18.4839L62.0152 18.9977L61.4784 19.5732L60.9799 19.0594C60.8137 19.1827 60.6348 19.2649 60.4431 19.306V20.046H59.657V19.306C59.4653 19.2649 59.2863 19.1827 59.1202 19.0594L58.6409 19.5732L58.0849 18.9977L58.5642 18.4839C58.4619 18.3057 58.3852 18.1071 58.3341 17.8878H57.6631V17.0656H58.3341C58.3852 16.8464 58.4619 16.6477 58.5642 16.4696L58.0849 15.9557L58.6409 15.3597L59.1202 15.8941C59.2863 15.7707 59.4653 15.6885 59.657 15.6474V14.9075H60.4431V15.6474C60.6348 15.6885 60.8137 15.7707 60.9799 15.8941L61.4784 15.3597L62.0152 15.9557L61.5359 16.4696C61.6381 16.6477 61.7148 16.8464 61.7659 17.0656H62.437V17.8878H61.7659ZM60.769 17.4767C60.769 17.0451 60.4622 16.7162 60.0596 16.7162C59.6762 16.7162 59.3502 17.0451 59.3502 17.4767C59.3502 17.9084 59.6762 18.2372 60.0596 18.2372C60.4622 18.2372 60.769 17.9084 60.769 17.4767Z" fill="white"/>
<path d="M13.7966 17.8467H13.0106V19.7377H9.42536V17.8467H8.62012L11.2084 15.2158L13.7966 17.8467Z" fill="white"/>
<path opacity="0.4" d="M46.4668 40.498C46.4668 43.4373 45.4506 46.1093 43.8018 48.1853C41.7887 50.6518 38.8362 52.2139 35.5386 52.2139C32.2409 52.2139 29.2884 50.6518 27.2753 48.1853C25.6073 46.1093 24.6104 43.4373 24.6104 40.498C24.6104 34.0441 29.4993 28.7822 35.5386 28.7822C41.5778 28.7822 46.4668 34.0441 46.4668 40.498Z" fill="black"/>
<path opacity="0.8" d="M43.8019 48.1859C41.7888 50.6524 38.8363 52.2146 35.5386 52.2146C32.241 52.2146 29.2885 50.6524 27.2754 48.1859C28.0806 45.0823 30.343 42.6569 33.2188 41.7936C32.0685 40.992 31.3207 39.5943 31.3207 38.0117C31.3207 35.5041 33.1996 33.4692 35.5386 33.4692C37.8777 33.4692 39.7565 35.5041 39.7565 38.0117C39.7565 39.5943 39.0088 40.992 37.8585 41.7936C40.7343 42.6569 42.9967 45.0823 43.8019 48.1859Z" fill="white"/>
<g opacity="0.5">
<path d="M15.024 59.1831V59.3886H13.8545V57.6621H14.9857V57.8677H14.0846V58.4021H14.8898V58.6076H14.0846V59.1831H15.024Z" fill="black"/>
<path d="M15.2334 58.6069H15.8661V58.8142H15.2334V58.6069Z" fill="black"/>
<path d="M18.2266 58.627V59.3875H17.9965V58.6681C17.9965 58.4009 17.8815 58.2776 17.6898 58.2776C17.4597 58.2776 17.3255 58.4214 17.3255 58.7092V59.3875H17.0954V58.6681C17.0954 58.4009 16.9804 58.2776 16.7887 58.2776C16.5586 58.2776 16.4244 58.4214 16.4244 58.7092V59.3875H16.1943V58.072H16.4052V58.2776C16.5011 58.1337 16.6545 58.072 16.827 58.072C17.0187 58.072 17.1721 58.1542 17.2488 58.3187C17.3447 58.1542 17.5172 58.072 17.7281 58.072C18.0157 58.072 18.2266 58.257 18.2266 58.627Z" fill="black"/>
<path fill-rule="evenodd" clip-rule="evenodd" d="M19.6049 58.6064V59.3875H19.394V59.223C19.3173 59.3258 19.1831 59.408 18.9914 59.408C18.7038 59.408 18.5312 59.2436 18.5312 59.0175C18.5312 58.812 18.6655 58.627 19.0297 58.627H19.3748V58.5859C19.3748 58.3803 19.2598 58.2776 19.0489 58.2776C18.8955 58.2776 18.7613 58.3187 18.6655 58.4214L18.5696 58.2365C18.7038 58.1337 18.8763 58.072 19.0681 58.072C19.4132 58.072 19.6049 58.2364 19.6049 58.6064ZM19.3748 58.997V58.812H19.0297C18.8188 58.812 18.7613 58.8942 18.7613 59.0175C18.7613 59.1408 18.8572 59.223 19.0297 59.223C19.1831 59.223 19.3173 59.1408 19.3748 58.997Z" fill="black"/>
<path d="M19.9697 57.682C19.9697 57.5998 20.0272 57.5176 20.1231 57.5176C20.1998 57.5176 20.2573 57.5792 20.2573 57.682C20.2573 57.7642 20.1998 57.8259 20.1231 57.8259C20.0272 57.8259 19.9697 57.7642 19.9697 57.682ZM20.0081 58.0725H20.219V59.388H20.0081V58.0725Z" fill="black"/>
<path d="M20.6416 57.5591H20.8717V59.3884H20.6416V57.5591Z" fill="black"/>
</g>
<g opacity="0.8">
<path d="M54.5757 67.9375H16.4995C14.9082 67.9375 13.6045 66.5398 13.6045 64.8338C13.6045 63.1279 14.9082 61.7507 16.4995 61.7507H54.5757C56.167 61.7507 57.4515 63.1279 57.4515 64.8338C57.4515 66.5398 56.167 67.9375 54.5757 67.9375Z" fill="white"/>
</g>
<g opacity="0.5">
<path fill-rule="evenodd" clip-rule="evenodd" d="M15.1582 73.4664C15.1582 73.8569 14.909 74.083 14.4872 74.083H14.0846V74.5969H13.8545V72.8704H14.4872C14.909 72.8704 15.1582 73.0964 15.1582 73.4664ZM14.9281 73.4664C14.9281 73.2198 14.7748 73.0759 14.468 73.0759H14.0846V73.857H14.468C14.7748 73.857 14.9281 73.7131 14.9281 73.4664Z" fill="black"/>
<path fill-rule="evenodd" clip-rule="evenodd" d="M16.4233 73.8157V74.5967H16.2124V74.4323C16.1357 74.535 16.0015 74.6173 15.8097 74.6173C15.5222 74.6173 15.3496 74.4528 15.3496 74.2267C15.3496 74.0212 15.4838 73.8362 15.8481 73.8362H16.1932V73.7951C16.1932 73.5896 16.0782 73.4868 15.8673 73.4868C15.7139 73.4868 15.5797 73.5279 15.4838 73.6307L15.388 73.4457C15.5222 73.3429 15.6947 73.2812 15.8864 73.2812C16.2315 73.2812 16.4233 73.4457 16.4233 73.8157ZM16.1932 74.2062V74.0212H15.8481C15.6372 74.0212 15.5797 74.1034 15.5797 74.2267C15.5797 74.3501 15.6755 74.4323 15.8481 74.4323C16.0015 74.4323 16.1357 74.3501 16.1932 74.2062Z" fill="black"/>
<path d="M16.6729 74.4528L16.7687 74.2678C16.8646 74.3501 17.0371 74.4117 17.1905 74.4117C17.4014 74.4117 17.4781 74.3501 17.4781 74.2267C17.4781 73.939 16.7112 74.1856 16.7112 73.6718C16.7112 73.4457 16.9029 73.2812 17.2097 73.2812C17.3822 73.2812 17.5548 73.3224 17.6698 73.4046L17.574 73.5896C17.4589 73.5073 17.3439 73.4868 17.2097 73.4868C17.018 73.4868 16.9221 73.5485 16.9221 73.6512C16.9221 73.9595 17.7082 73.7129 17.7082 74.2267C17.7082 74.4528 17.4973 74.6173 17.1713 74.6173C16.9796 74.6173 16.7687 74.535 16.6729 74.4528Z" fill="black"/>
<path d="M17.8232 74.4528L17.9191 74.2678C18.015 74.3501 18.1875 74.4117 18.3409 74.4117C18.5518 74.4117 18.6285 74.3501 18.6285 74.2267C18.6285 73.939 17.8616 74.1856 17.8616 73.6718C17.8616 73.4457 18.0533 73.2812 18.3792 73.2812C18.5326 73.2812 18.7052 73.3224 18.8202 73.4046L18.7243 73.5896C18.6093 73.5073 18.4943 73.4868 18.3601 73.4868C18.1683 73.4868 18.0725 73.5485 18.0725 73.6512C18.0725 73.9595 18.8585 73.7129 18.8585 74.2267C18.8585 74.4528 18.6477 74.6173 18.3217 74.6173C18.13 74.6173 17.9191 74.535 17.8232 74.4528Z" fill="black"/>
<path d="M20.9483 73.2812L20.4881 74.5967H20.2772L19.9321 73.6101L19.5679 74.5967H19.357L18.916 73.2812H19.1269L19.472 74.3295L19.8363 73.2812H20.028L20.3923 74.3295L20.7566 73.2812H20.9483Z" fill="black"/>
<path fill-rule="evenodd" clip-rule="evenodd" d="M21.0244 73.939C21.0244 73.5484 21.2928 73.2812 21.6571 73.2812C22.0214 73.2812 22.2898 73.5484 22.2898 73.939C22.2898 74.3295 22.0214 74.6173 21.6571 74.6173C21.2928 74.6173 21.0244 74.3295 21.0244 73.939ZM22.0789 73.939C22.0789 73.6718 21.9063 73.4868 21.6571 73.4868C21.427 73.4868 21.2545 73.6718 21.2545 73.939C21.2545 74.2267 21.427 74.4117 21.6571 74.4117C21.9063 74.4117 22.0789 74.2267 22.0789 73.939Z" fill="black"/>
<path d="M23.2476 73.2812V73.5073C23.2348 73.5073 23.222 73.5073 23.2092 73.5073C22.96 73.5073 22.8258 73.6512 22.8258 73.939V74.5967H22.5957V73.2812H22.8066V73.5073C22.8833 73.3635 23.0367 73.2812 23.2476 73.2812Z" fill="black"/>
<path fill-rule="evenodd" clip-rule="evenodd" d="M24.6658 72.7676V74.5969H24.4549V74.3913C24.359 74.5352 24.2056 74.6174 24.0139 74.6174C23.6688 74.6174 23.4004 74.3502 23.4004 73.9391C23.4004 73.5486 23.6688 73.2814 24.0139 73.2814C24.1865 73.2814 24.3398 73.3431 24.4357 73.487V72.7676H24.6658ZM24.4549 73.9391C24.4549 73.6719 24.2823 73.487 24.0522 73.487C23.803 73.487 23.6305 73.6719 23.6305 73.9391C23.6305 74.2269 23.803 74.4119 24.0522 74.4119C24.2823 74.4119 24.4549 74.2269 24.4549 73.9391Z" fill="black"/>
</g>
<g opacity="0.8">
<path d="M54.5757 83.148H16.4995C14.9082 83.148 13.6045 81.7503 13.6045 80.0443C13.6045 78.3383 14.9082 76.9612 16.4995 76.9612H54.5757C56.167 76.9612 57.4515 78.3383 57.4515 80.0443C57.4515 81.7503 56.167 83.148 54.5757 83.148Z" fill="white"/>
</g>
<path d="M104.061 18.0731L87.592 17.9086C86.8059 17.9086 86.1924 17.2098 86.1924 16.3876L86.3458 11.0641C86.3649 10.2214 86.9976 9.54313 87.7837 9.56369L104.253 9.72812C105.039 9.72812 105.652 10.427 105.652 11.2697L105.499 16.5932C105.48 17.4153 104.847 18.0936 104.061 18.0731Z" fill="#407BFF"/>
<path d="M95.5854 16.7372C95.5854 16.7372 93.4956 21.6907 88.9326 23.1706C88.9326 23.1706 91.4634 21.6496 91.3292 16.47L95.5854 16.7372Z" fill="#407BFF"/>
<path d="M90.4662 13.7571L90.8688 13.9832L90.6771 14.312L90.2937 14.0448V14.5176H89.9486L89.9677 14.0448L89.5651 14.312L89.3926 13.9832L89.776 13.7571L89.3926 13.531L89.5651 13.2021L89.9677 13.4693L89.9486 12.9966H90.2937V13.4693L90.6771 13.2021L90.8688 13.531L90.4662 13.7571Z" fill="white"/>
<path d="M92.8246 13.7571L93.2081 13.9832L93.0355 14.312L92.6329 14.0448L92.6521 14.5176H92.307V14.0448L91.9235 14.312L91.751 13.9832L92.1344 13.7571L91.751 13.531L91.9235 13.2021L92.307 13.4693V12.9966H92.6521L92.6329 13.4693L93.0355 13.2021L93.2081 13.531L92.8246 13.7571Z" fill="white"/>
<path d="M95.1821 13.7571L95.5655 13.9832L95.3929 14.312L94.9903 14.0448L95.0095 14.5176H94.6644V14.0448L94.281 14.312L94.1084 13.9832L94.4918 13.7571L94.1084 13.531L94.281 13.2021L94.6644 13.4693V12.9966H95.0095L94.9903 13.4693L95.3929 13.2021L95.5655 13.531L95.1821 13.7571Z" fill="white"/>
<path d="M97.542 13.7571L97.9255 13.9832L97.7529 14.312L97.3503 14.0448L97.3695 14.5176H97.0244V14.0448L96.6218 14.312L96.4492 13.9832L96.8518 13.7571L96.4492 13.531L96.6218 13.2021L97.0244 13.4693V12.9966H97.3695L97.3503 13.4693L97.7529 13.2021L97.9255 13.531L97.542 13.7571Z" fill="white"/>
<path d="M99.8803 13.7571L100.283 13.9832L100.11 14.312L99.7077 14.0448V14.5176H99.3818V14.0448L98.9792 14.312L98.8066 13.9832L99.2093 13.7571L98.8066 13.531L98.9792 13.2021L99.3818 13.4693V12.9966H99.7077V13.4693L100.11 13.2021L100.283 13.531L99.8803 13.7571Z" fill="white"/>
<path d="M102.239 13.7571L102.641 13.9832L102.469 14.312L102.066 14.0448V14.5176H101.74V14.0448L101.338 14.312L101.165 13.9832L101.568 13.7571L101.165 13.531L101.338 13.2021L101.74 13.4693V12.9966H102.066V13.4693L102.469 13.2021L102.641 13.531L102.239 13.7571Z" fill="white"/>
<path d="M78.0049 26.7275C80.1905 27.0975 82.3186 34.3531 83.2389 34.9492C84.1784 35.5452 83.3731 28.1663 83.3731 28.1663L85.137 27.8991C85.137 27.8991 87.2076 39.06 84.1784 38.9778C81.8777 38.9161 79.1169 34.7642 78.4458 32.6677L78.0049 26.7275Z" fill="#EBB376"/>
<path opacity="0.1" d="M84.1784 38.9778C82.7788 38.9367 81.2067 37.3951 80.0372 35.7097C79.2894 34.6409 78.7143 33.4898 78.4458 32.6677L78.2158 29.6257L78.0049 26.7275C80.1905 27.0975 82.3186 34.3531 83.2389 34.9492C84.1784 35.5452 83.3731 28.1663 83.3731 28.1663L85.137 27.8991C85.137 27.8991 87.2076 39.06 84.1784 38.9778Z" fill="black"/>
<path opacity="0.2" d="M80.0382 35.71C79.2904 34.6412 78.7153 33.4901 78.4469 32.668L78.2168 29.626C78.2168 29.626 80.6133 32.1952 80.0382 35.71Z" fill="black"/>
<path d="M77.9473 18.835C77.7556 21.0548 75.9534 22.5758 75.6275 23.6241C75.3015 24.6929 75.9917 24.9807 75.9917 24.9807C72.0422 26.6866 68.898 24.9807 68.898 24.9807C70.1442 23.3158 66.4056 23.2336 66.2139 17.4784C66.0221 11.7233 69.9333 11.7644 69.9333 11.7644C73.9595 11.1889 78.1198 16.6151 77.9473 18.835Z" fill="#263238"/>
<path d="M67.0386 16.9852C66.4443 11.0246 69.8378 12.0523 69.8378 12.0523C70.8731 10.5724 72.3685 10.1202 73.7873 10.634C75.4361 11.2301 77.2574 12.5661 77.9476 16.718C78.772 21.7949 73.7873 22.802 73.7873 22.802C71.2949 25.5152 67.6329 22.9459 67.0386 16.9852Z" fill="#263238"/>
<path d="M82.8744 107.937L80.6504 106.724L81.4556 103.168L82.2034 99.9207L85.0025 100.887L83.8713 104.628L82.8744 107.937Z" fill="#EBB376"/>
<path d="M80.0358 106.149C80.1701 105.902 83.1417 107.752 83.1417 107.752C83.1417 107.752 84.0812 110.815 85.6917 112.253C87.3213 113.692 85.7492 114.329 83.6978 113.24C81.6463 112.151 80.0742 111.308 78.6171 110.527C77.16 109.746 78.6938 108.903 80.0358 106.149Z" fill="#263238"/>
<path fill-rule="evenodd" clip-rule="evenodd" d="M84.1573 109.315C83.7739 109.007 83.3904 108.493 83.2946 108.349C83.2818 108.349 83.2754 108.342 83.2754 108.328C83.2754 108.315 83.2754 108.301 83.2754 108.287C83.2754 108.273 83.2754 108.267 83.2754 108.267C83.2754 108.253 83.2818 108.239 83.2946 108.225C83.3329 108.205 83.9464 107.568 84.4449 107.609C84.5983 107.623 84.7261 107.698 84.8284 107.835C84.9434 107.972 84.9689 108.095 84.905 108.205C84.8092 108.39 84.5216 108.431 84.1957 108.452C84.4832 108.554 84.7325 108.698 84.8475 108.904C84.9114 109 84.9306 109.102 84.905 109.212C84.8667 109.418 84.7517 109.5 84.675 109.52C84.5216 109.561 84.349 109.459 84.1573 109.315ZM83.6013 108.452C83.9464 108.904 84.4257 109.376 84.6366 109.335C84.6558 109.315 84.7133 109.315 84.7325 109.171C84.7453 109.116 84.7325 109.061 84.6941 109.007C84.5408 108.739 83.9848 108.554 83.6013 108.452ZM84.6175 107.876C84.5663 107.835 84.5024 107.808 84.4257 107.794C84.1573 107.773 83.793 108.04 83.5822 108.225C84.119 108.287 84.675 108.267 84.7517 108.123C84.7708 108.061 84.7325 107.999 84.6941 107.938C84.6686 107.91 84.643 107.89 84.6175 107.876Z" fill="#407BFF"/>
<path opacity="0.2" d="M83.8512 104.69L81.4355 103.23L82.2024 99.9417L85.0016 100.908L83.8512 104.69Z" fill="black"/>
<path d="M78.9639 110.897H76.4331L75.7046 107.402L75.0527 104.196L78.0053 103.723L78.5229 107.526L78.9639 110.897Z" fill="#EBB376"/>
<path d="M75.5888 110.793C75.5888 110.485 79.0206 110.732 79.0206 110.732C79.0206 110.732 81.1488 113.034 83.2002 113.548C85.2516 114.062 84.1013 115.377 81.8006 115.377C79.5191 115.377 77.7553 115.377 76.1256 115.377C74.496 115.377 75.5313 113.897 75.5888 110.793Z" fill="#263238"/>
<path fill-rule="evenodd" clip-rule="evenodd" d="M80.8433 111.677C80.364 111.677 79.5971 111.287 79.4053 111.205C79.4053 111.191 79.399 111.184 79.3862 111.184C79.3734 111.17 79.367 111.163 79.367 111.163C79.3542 111.136 79.3542 111.109 79.367 111.081C79.3862 111.04 79.6738 110.197 80.1339 109.971C80.2873 109.917 80.4343 109.923 80.5749 109.992C80.7282 110.074 80.8049 110.177 80.8049 110.3C80.7858 110.506 80.5557 110.691 80.2681 110.855C80.5557 110.814 80.8624 110.835 81.035 110.937C81.1372 110.992 81.2011 111.074 81.2267 111.184C81.2651 111.41 81.2075 111.513 81.1308 111.575C81.0733 111.636 80.9583 111.677 80.8433 111.677ZM79.7313 111.143C80.2298 111.369 80.8624 111.575 81.0158 111.431C81.035 111.41 81.0733 111.39 81.0542 111.246C81.0414 111.191 81.0094 111.143 80.9583 111.102C80.7091 110.958 80.1147 111.04 79.7313 111.143ZM80.3448 110.136C80.2937 110.136 80.2489 110.143 80.2106 110.156C79.9422 110.28 79.7313 110.67 79.6162 110.958C80.1147 110.752 80.6132 110.465 80.6132 110.3C80.6324 110.239 80.5557 110.197 80.4982 110.177C80.447 110.149 80.3959 110.136 80.3448 110.136Z" fill="#407BFF"/>
<path opacity="0.2" d="M78.5229 107.608L75.7046 107.484L75.0527 104.237L78.0053 103.744L78.5229 107.608Z" fill="black"/>
<path d="M66.5973 46.9527L72.8283 45.8839L78.465 44.6506L79.9796 54.496C79.9796 54.496 87.9361 66.8285 89.8533 75.3173C91.7705 83.7856 84.5617 103.476 84.5617 103.476L81.2449 101.914C81.2449 101.914 83.5456 82.984 83.4881 80.7025C83.4497 79.2226 78.9251 72.3986 75.7617 67.7945C75.6658 68.9455 76.7011 80.4764 76.7011 80.4764L78.9251 105.717H74.7647C60.3855 57.8875 66.5973 46.9527 66.5973 46.9527Z" fill="#263238"/>
<path opacity="0.6" d="M66.5973 46.9527L72.8283 45.8839L78.465 44.6506L79.9796 54.496C79.9796 54.496 87.9361 66.8285 89.8533 75.3173C91.7705 83.7856 84.5617 103.476 84.5617 103.476L81.2449 101.914C81.2449 101.914 83.5456 82.984 83.4881 80.7025C83.4689 79.5103 80.5356 74.8857 77.7556 70.7132C77.0654 69.7061 76.3752 68.6989 75.7617 67.7945C75.6658 68.8839 76.7011 80.4764 76.7011 80.4764L78.9251 105.717H74.7647C60.3855 57.8875 66.5973 46.9527 66.5973 46.9527Z" fill="white"/>
<path d="M81.0728 100.311L85.9618 102.12L84.869 103.929L80.8428 102.387L81.0728 100.311Z" fill="#407BFF"/>
<path d="M74.1709 105.1L79.4049 104.34L79.1365 106.436L74.8228 107.012L74.1709 105.1Z" fill="#407BFF"/>
<path opacity="0.2" d="M75.3601 58.6902C75.3601 58.6902 76.6447 64.6303 77.7567 70.7143C77.0665 69.7072 76.3763 68.7 75.7628 67.7956C75.7628 67.7956 75.0726 63.4998 75.3601 58.6902Z" fill="black"/>
<path d="M78.3483 45.0415L66.9983 45.8842C66.9983 45.8842 66.845 39.348 65.9439 35.9566C65.8288 35.5044 65.6946 35.0317 65.5412 34.5178C65.3303 33.7984 65.0811 33.0379 64.8127 32.1952C64.736 32.0102 64.5826 31.5169 64.3717 30.9414C64.0458 29.9548 64.295 28.9271 64.9277 28.2694C65.2345 27.9405 65.6371 27.6939 66.0781 27.5911C66.9216 27.3856 67.7461 27.2006 68.187 27.1389C69.887 26.8511 71.5997 26.673 73.3252 26.6045C74.7823 26.6045 76.3928 26.7073 77.313 26.7689C77.8115 26.81 78.1183 26.8306 78.1183 26.8306C78.1183 26.8306 78.4825 26.9334 78.7126 29.1943C78.9235 31.3114 78.8085 37.2926 78.3483 45.0415Z" fill="#407BFF"/>
<path d="M72.9422 29.1944C70.0855 28.6394 69.2803 27.2829 69.2803 27.2829C71.1975 25.5152 69.8363 22.2266 69.8363 22.2266L73.2681 23.1104C73.1531 23.727 73.0764 24.2409 73.0572 24.6725C72.923 26.9334 73.8816 27.0157 73.8816 27.0157C74.4184 28.2695 72.9422 29.1944 72.9422 29.1944Z" fill="#EBB376"/>
<path opacity="0.2" d="M73.2707 23.1104C73.1557 23.727 73.079 24.2409 73.0598 24.6725C71.411 24.1792 69.8389 22.2266 69.8389 22.2266L73.2707 23.1104Z" fill="black"/>
<path d="M73.0206 12.565C76.0307 12.8733 76.8551 14.682 76.7975 18.0324C76.7209 22.2254 75.6089 25.103 71.9278 23.8492C66.9046 22.1432 68.0166 12.0922 73.0206 12.565Z" fill="#EBB376"/>
<path d="M74.8612 17.6626C74.8612 17.6626 75.2063 18.5464 75.6281 19.1014C75.6281 19.1014 75.3214 19.5125 74.8037 19.3891L74.8612 17.6626Z" fill="#D58745"/>
<path d="M73.0408 17.2309C73.0216 17.4981 72.8682 17.7036 72.7148 17.6831C72.5423 17.6831 72.4272 17.457 72.4464 17.1898C72.4656 16.9226 72.5998 16.717 72.7723 16.717C72.9449 16.7376 73.0599 16.9637 73.0408 17.2309Z" fill="#263238"/>
<path d="M72.6963 16.738L73.2523 16.5325C73.2523 16.5325 72.9647 17.0052 72.6963 16.738Z" fill="#263238"/>
<path d="M76.1267 17.3947C76.1075 17.6619 75.9541 17.8675 75.8008 17.8469C75.6282 17.8469 75.5132 17.6208 75.5324 17.3536C75.5515 17.0864 75.6857 16.8809 75.8583 16.8809C76.0308 16.9014 76.1459 17.1275 76.1267 17.3947Z" fill="#263238"/>
<path d="M75.7822 16.9018L76.3382 16.6963C76.3382 16.6963 76.0506 17.169 75.7822 16.9018Z" fill="#263238"/>
<path d="M73.1946 14.9908C73.1946 14.9908 72.3702 14.7852 71.8525 15.3607" stroke="#263238" stroke-width="1.4" stroke-linecap="round" stroke-linejoin="round"/>
<path d="M75.3965 15.072C75.3965 15.072 75.9525 14.9075 76.566 15.4419" stroke="#263238" stroke-width="1.4" stroke-linecap="round" stroke-linejoin="round"/>
<path d="M69.3403 21.4246C66.8671 18.7526 67.5381 10.6337 72.6955 11.2503C77.8528 11.8875 76.7984 17.6015 76.7984 17.6015C77.0476 11.0653 70.855 13.1208 70.855 13.1208C70.8933 15.1762 69.2637 17.7043 69.2637 17.7043C68.2475 19.2664 69.3403 21.4246 69.3403 21.4246Z" fill="#263238"/>
<path d="M69.1096 19.7384C66.8281 19.019 67.4416 17.0253 68.3811 17.0047C69.3013 16.9842 69.7231 17.9091 69.704 18.423C69.6464 19.5123 69.4356 19.8412 69.1096 19.7384Z" fill="#EBB376"/>
<path d="M74.5919 20.7457C74.5919 20.7457 73.3265 20.8485 72.9814 19.5947" stroke="#263238" stroke-width="1.4" stroke-linecap="round" stroke-linejoin="round"/>
<path d="M70.8926 12.9768C70.8926 12.9768 75.5323 12.278 76.7401 16.5327" stroke="#263238" stroke-width="1.4" stroke-linecap="round" stroke-linejoin="round"/>
<path d="M84.5427 23.6243C84.5427 23.6243 86.134 23.6038 86.1724 23.8916C86.2299 24.1999 86.134 26.6869 85.9231 27.0363C85.7122 27.3857 85.1371 27.879 85.1371 27.879L85.2905 32.2982L84.351 32.6476L83.4883 28.619C83.4883 28.619 82.5105 27.5913 82.7981 26.3169C83.0856 25.022 84.5427 23.6243 84.5427 23.6243Z" fill="#EBB376"/>
<path opacity="0.1" d="M84.5427 23.6243C84.5427 23.6243 86.134 23.6038 86.1724 23.8916C86.2299 24.1999 86.134 26.6869 85.9231 27.0363C85.7122 27.3857 85.1371 27.879 85.1371 27.879L85.2905 32.2982L84.351 32.6476L83.4883 28.619C83.4883 28.619 82.5105 27.5913 82.7981 26.3169C83.0856 25.022 84.5427 23.6243 84.5427 23.6243Z" fill="black"/>
<path d="M82.0511 20.0477C82.0511 19.8832 82.1661 19.7188 82.3195 19.6983L85.0228 19.4722C85.1762 19.4722 85.2912 19.616 85.2912 19.7805L85.0995 25.5356C85.0995 25.7001 84.9653 25.8439 84.8119 25.8439L82.1278 26.07C81.9744 26.0906 81.8594 25.9673 81.8594 25.8028L82.0511 20.0477Z" fill="#263238"/>
<path opacity="0.5" d="M82.5865 19.6773L84.868 19.4924C85.0213 19.4718 85.2898 19.5746 85.2898 19.739L85.098 25.5764C85.098 25.7408 84.8105 25.8436 84.6571 25.8641L82.3756 26.0491C82.2222 26.0697 82.1455 25.9669 82.1455 25.8024L82.3372 19.9856C82.3372 19.8212 82.4331 19.6979 82.5865 19.6773Z" fill="white"/>
<path d="M79.1172 30.1605L80.1333 27.6118C80.1333 27.6118 80.4784 24.1793 80.6318 23.8093C80.8044 23.4393 83.4118 23.5832 83.6802 23.5627C83.9678 23.5215 83.9103 26.9541 83.6419 27.324C83.3734 27.6735 82.2998 27.9612 82.2998 27.9612L80.6701 31.3732L79.1172 30.1605Z" fill="#EBB376"/>
<path d="M76.2405 28.7832C75.9529 29.9548 74.8984 30.8592 72.6936 30.8386C71.294 30.8181 70.1629 30.2631 69.2618 29.5643C68.2265 28.7627 67.5362 27.7966 67.2295 27.3033C67.549 27.2485 67.8686 27.1937 68.1881 27.1389C69.888 26.8511 71.6008 26.673 73.3263 26.6045C74.2466 26.6045 75.2052 26.6456 76.0296 26.6867C76.298 27.3856 76.3938 28.1255 76.2405 28.7832Z" fill="#EBB376"/>
<path d="M78.4079 44.3018L78.753 46.501L66.502 47.1793L66.9813 44.9595L78.4079 44.3018Z" fill="#263238"/>
<path d="M73.7855 44.6512L75.5685 44.5279C75.7027 44.5073 75.8369 44.6307 75.8561 44.7745L75.9712 46.1928C75.9903 46.3572 75.8753 46.4805 75.7219 46.5011L73.9581 46.645C73.8047 46.6655 73.6897 46.5422 73.6705 46.3983L73.5363 44.9801C73.5171 44.8156 73.6321 44.6718 73.7855 44.6512Z" stroke="white" stroke-width="2" stroke-linecap="round" stroke-linejoin="round"/>
<path d="M74.9746 45.4521H75.6456" stroke="white" stroke-width="2" stroke-linecap="round" stroke-linejoin="round"/>
<path opacity="0.2" d="M68.6663 35.5251C67.5735 35.9156 66.3657 35.2168 65.5412 34.518C65.3303 33.7986 65.0811 33.0381 64.8127 32.1954C64.736 32.0104 64.5826 31.5171 64.3717 30.9416C64.0458 29.955 64.295 28.9273 64.9277 28.2695C67.0175 30.366 70.1042 34.9907 68.6663 35.5251Z" fill="black"/>
<path d="M64.9104 27.9816C65.8306 27.2005 67.1727 27.4061 67.8629 28.4338C69.5309 31.0236 72.3684 35.3194 72.7135 35.5455C73.1928 35.8332 76.8739 32.2157 80.1331 27.6116L82.1462 28.4132C82.1462 28.4132 76.9697 39.8413 73.2886 39.8824C70.5278 39.9235 66.4058 33.9217 64.5077 30.9208C63.9134 29.9753 64.0859 28.701 64.9104 27.9816Z" fill="#EBB376"/>
<path opacity="0.2" d="M69.281 49.5633C68.8017 52.1325 65.4082 53.6946 65.4082 53.6946V52.708C67.728 51.742 68.6675 49.0083 68.6675 49.0083L69.281 49.5633Z" fill="black"/>
<path opacity="0.2" d="M66.0402 63.3547L69.2803 62.7175L70.0472 69.7059L66.9413 70.1992L66.5003 65.6362L69.2995 65.2046L69.1461 63.478L69.0886 65.0196L65.9443 65.554L66.0402 63.3547Z" fill="black"/>
</svg>
